<svg xmlns="http://www.w3.org/2000/svg"><path fill-rule="evenodd" clip-rule="evenodd" d="M121.3 153.1c11.63-3.91 20.44-14.96 19.17-30.93-1.91-24.27-25.3-30.3-39.88-23.14-19.77 9.7-22.27 11.28-36.43 11.28-10.55 0-21.29 5.08-22.63 18.82-.97 9.95 2.94 18.64 17.42 23.08 26.36 8.07 51.1 4.67 62.34.9z" fill="#364147" style="stroke-width:.356371"/><path fill-rule="evenodd" clip-rule="evenodd" d="M86.38 120.57a4.12 4.12 0 0 0 4.04-4.19c0-2.31-1.8-4.19-4.04-4.19a4.06 4.06 0 0 0-3.86 2.94 2.6 2.6 0 0 0-.85-.15 2.74 2.74 0 0 0-2.7 2.8 2.75 2.75 0 0 0 2.7 2.79zm-9.24 21.3c1.25 0 2.27-1 2.27-2.23a2.27 2.27 0 0 0-3.4-1.94v-.02c0-2.31-1.9-4.19-4.24-4.19a4.24 4.24 0 0 0-4.03 2.9 2.86 2.86 0 0 0-.77-.1 2.81 2.81 0 0 0-2.83 2.79c0 1.54 1.27 2.8 2.83 2.8z" fill="#f1f1f2" fill-opacity=".38" style="stroke-width:.356371"/><rect x="54.68" y="105.9" width="18.03" height="35.66" rx="2.67" transform="rotate(6) skewX(.04)" fill="#42cba5" stroke="#316474" style="stroke-width:.356371"/><rect x="54.68" y="104.59" width="17.96" height="35.54" rx="2.67" transform="rotate(6) skewX(.04)" fill="#eefaf6" stroke="#316474" style="stroke-width:.356371"/><path d="m59.85 114.44-3.05 29.23a1.96 1.96 0 0 1-2.15 1.74l-11.75-1.23a1.96 1.96 0 0 1-1.75-2.16l3.06-29.23a1.96 1.96 0 0 1 2.15-1.74l1.87.2 8 .84 1.88.2a1.96 1.96 0 0 1 1.74 2.15z" fill="#dff3ed" stroke="#316474" style="stroke-width:.356371"/><path d="m48.82 132.68.93.1.24-2.33-.93-.1-.24 2.33zm-.97-3.42.8-.65.66.8.4-.32-.65-.81.8-.65-.32-.4-.8.65-.66-.81-.4.33.65.8-.81.66.33.4zm-.3 1.88-.14 1.4.94.1.14-1.4c-.31-.04-.62-.08-.93-.1zm6.01-3.15-.54 5.14.94.09.54-5.12c-.31-.05-.63-.07-.94-.1zm-1.52.96c-.14 1.34-.29 2.68-.42 4.03l.93.1c.16-1.4.29-2.8.44-4.2-.3-.05-.61-.06-.92-.1l-.03.17zm-1.47.61-.03.18-.32 3.1.93.09c.04-.36.07-.73.12-1.09.07-.73.16-1.45.22-2.18l-.92-.1z" fill="#316474" style="stroke-width:.356371"/><path d="M45.86 113.28a.59.59 0 0 0 .52.64.59.59 0 0 0 .65-.52.59.59 0 0 0-.52-.64.59.59 0 0 0-.65.52zm76.23 31.43-12.07.84c-.1 0-.19 0-.24-.03a.17.17 0 0 1-.04-.01l-.25-3.58a.22.22 0 0 1 .03-.02.6.6 0 0 1 .24-.06l12.07-.85c.1 0 .2.01.25.03l.03.02.25 3.58a.22.22 0 0 1-.03.02.6.6 0 0 1-.24.06z" fill="#fff" stroke="#316474" style="stroke-width:.356371"/><path d="m140.6 140.79-49.5 3.45a1.86 1.86 0 0 1-1.98-1.72l-2.22-31.68c-.07-1.02.7-1.9 1.73-1.98l49.49-3.45c1.02-.07 1.91.7 1.98 1.72l2.22 31.68c.08 1.02-.7 1.9-1.72 1.98z" fill="#eefaf6" style="stroke-width:.356371"/><path d="M91.1 144.24a1.86 1.86 0 0 1-1.98-1.72l-2.22-31.68c-.07-1.02.7-1.9 1.73-1.98l49.49-3.45c1.02-.07 1.91.7 1.98 1.72l2.22 31.68c.08 1.02-.7 1.9-1.72 1.98" stroke="#316474" style="stroke-width:.356371"/><path d="m138.76 139.27-46.3 3.22c-.86.06-1.6-.57-1.66-1.4l-2.02-28.8a1.54 1.54 0 0 1 1.46-1.62l46.28-3.22c.87-.07 1.61.57 1.67 1.39l2.02 28.81c.06.83-.59 1.56-1.45 1.62z" fill="#dff3ed" stroke="#316474" style="stroke-width:.356371"/><path d="m121.52 142.32 24.4-1.7.16 2.13c.02.28-.04.53-.13.7-.1.18-.22.26-.33.27l-58.81 4.1c-.11.01-.25-.05-.37-.21-.11-.17-.2-.4-.22-.68l-.15-2.14 24.4-1.7c.1.28.24.53.41.71.2.21.47.35.76.33l8.87-.62c.3-.02.53-.19.7-.43.15-.2.26-.47.3-.76z" fill="#42cba5" stroke="#316474" style="stroke-width:.356371"/><path d="m121.58 142 24.91-1.75.1 1.31a.54.54 0 0 1-.5.58l-59.97 4.18a.54.54 0 0 1-.58-.5l-.09-1.31 24.91-1.74a1.18 1.18 0 0 0 1.14.65l9.04-.63a1.18 1.18 0 0 0 1.04-.8z" fill="#eefaf6" stroke="#316474" style="stroke-width:.356371"/><circle transform="rotate(-3.99) skewX(.02)" fill="#42cba5" stroke="#316474" r="5.7" cx="105.47" cy="133.44" style="stroke-width:.356371"/><path d="m113.67 127.04-1.21-.98a.7.7 0 0 0-.97.1.67.67 0 0 0 .09.95l1.81 1.47a.7.7 0 0 0 1.02-.16l2.86-4.35a.67.67 0 0 0-.2-.94.7.7 0 0 0-.95.2l-2.45 3.71z" fill="#fff" stroke="#316474" style="stroke-width:.356371"/></svg>