<svg version="1.2" fill="#cecdcd" xmlns="http://www.w3.org/2000/svg" viewBox="0 0 512 512" width="24" height="24">
	<title>Messages</title>
	<path fill-rule="evenodd" d="m65.5 64.1h121c114.8 0 121.3 0 126.5 1.8 3 1 8 3.1 11 4.6 3 1.5 8.4 5.8 12 9.4 3.6 3.6 8 9.3 9.7 12.6 1.8 3.3 3.9 8.9 4.7 12.5 1.3 5.5 1.6 16.8 1.6 75.3 0 47.1-0.4 70.3-1.1 74-0.6 2.8-2.3 7.5-3.7 10.2-1.4 2.8-4.6 7.2-7.1 9.9-2.5 2.6-6.6 6-9.1 7.4-2.5 1.5-6.3 3.3-8.5 4.2-3.5 1.3-18.4 1.6-221 2.5l-5.5 2.6c-3 1.4-17.9 10.8-33 20.9-24.6 16.4-27.9 18.3-31.5 18.2-3.1 0-4.7-0.8-10.6-6.7l0.3-108c0.3-95.2 0.5-108.5 1.9-112.5 0.9-2.5 2.8-7 4.3-10 1.4-3 4.6-7.7 7-10.5 2.3-2.7 6.7-6.7 9.7-8.8 3-2.1 9-5.1 13.4-6.7zm33.7 67.3c-1.2 1.2-2.5 3.7-2.9 5.6-0.4 2.3 0 4.5 1.1 6.5 0.8 1.7 2.7 3.6 4.1 4.3 1.9 0.9 21.2 1.2 86.1 1.2h83.6c5-5.1 5.8-7 5.8-9.5 0-1.9-0.5-4.5-1-5.7-0.6-1.3-2.4-3.1-4-4-2.8-1.7-8.6-1.8-85.2-1.7-45.3 0-83 0.3-83.8 0.6-0.8 0.3-2.5 1.5-3.8 2.7zm-1.6 45c-1.3 2.2-1.7 4.1-1.3 6.6 0.4 1.9 1.8 4.6 3.3 6l2.6 2.5c156.3 0.6 166.7 0.4 169.3-0.9 1.6-0.9 3.6-2.7 4.2-4.1 0.7-1.4 1.3-4.1 1.3-6 0-2.5-0.8-4.3-3-6.5l-3-3c-139.7 0.1-168.2 0.5-169.5 1.2-1.1 0.6-2.9 2.4-3.9 4.2zm-0.1 42.6c-0.8 1.7-1.5 3.9-1.5 5 0 1.1 0.7 3.4 1.5 5 0.8 1.7 3 3.7 5 4.5 2.9 1.3 10.6 1.5 47 1.5 39.4 0 43.8-0.2 47.1-1.7 2.1-1.1 4.1-3.1 5-5 0.8-1.8 1.4-3.7 1.4-4.3 0-0.5-0.8-2.6-1.8-4.5-1-2.2-3-4.2-5-5-2.6-1.2-10.9-1.5-47-1.4-36.1 0-44.3 0.2-47 1.5-1.7 0.8-3.9 2.8-4.7 4.4zm308-5.8c30.1 0.4 31.2 0.5 38 2.9 3.9 1.4 9.7 4.3 12.9 6.5 3.3 2.1 7.7 5.9 9.8 8.4 2.2 2.5 5.1 6.5 6.5 9 1.5 2.5 3.7 7.7 7.3 18.5v111.8c0 92.5-0.2 112.2-1.4 114.5-0.7 1.5-2.5 3.5-4 4.5-1.4 0.9-3.8 1.7-5.4 1.7-1.8 0-11.8-6.1-31.7-19.3-16-10.6-31-20.2-33.5-21.2-4.3-1.9-8.3-2-212.5-3l-6.5-2.5c-3.6-1.4-9.2-4.3-12.4-6.5-3.3-2.2-7.9-6.2-10.3-9-2.3-2.7-5.6-7.8-7.3-11.2-1.6-3.5-3.6-8.4-4.3-11-0.9-3.5-1.2-17.3-1.2-97.8l250.7-1 2.4-2.7c1.6-1.8 2.4-4 2.4-6.3 0-1.9-0.5-4.5-1-5.7-0.6-1.3-2.4-3.1-4-4-2.6-1.5-5.8-1.8-43-1.8l3.7-4.7c2-2.6 4.9-7.5 6.4-10.8 1.6-3.3 3.5-8.7 4.4-12 1.1-4.6 1.5-10.8 1.3-26.1-0.1-11.2 0.3-20.4 0.8-20.8 0.5-0.4 14.8-0.6 31.9-0.4zm-179.9 123.2c-1.3 2.2-1.7 4.1-1.3 6.6 0.4 1.9 1.8 4.6 3.3 6l2.6 2.5c156.3 0.6 166.7 0.4 169.3-0.9 1.6-0.9 3.6-2.7 4.2-4.1 0.7-1.4 1.3-4.1 1.3-6 0-2.5-0.8-4.3-3-6.5l-3-3c-139.7 0.1-168.2 0.5-169.5 1.2-1.1 0.6-2.9 2.4-3.9 4.2zm-0.1 42.6c-0.8 1.7-1.5 3.9-1.5 5 0 1.1 0.7 3.4 1.5 5 0.8 1.7 3 3.7 5 4.5 2.9 1.3 9.9 1.5 41.5 1.5 31.6 0 38.6-0.2 41.5-1.5 2-0.8 4.2-2.8 5-4.5 0.8-1.6 1.5-3.9 1.5-5 0-1.1-0.7-3.3-1.5-5-0.8-1.7-3-3.6-5-4.5-2.9-1.2-9.9-1.5-41.8-1.4-31.3 0-38.8 0.3-41.5 1.5-1.7 0.8-3.9 2.8-4.7 4.4z"/>
</svg>