<svg version="1.2" xmlns="http://www.w3.org/2000/svg" viewBox="0 0 303 172" width="360" height="204">
	<title>image</title>
	<style>
		.s0 { fill: #364147 } 
		.s1 { opacity: .4;fill: #f1f1f2 } 
		.s2 { fill: #42cba5;stroke: #316474;stroke-width: 1 } 
		.s3 { fill: #eefaf6;stroke: #316474;stroke-width: 1 } 
		.s4 { fill: #dff3ed;stroke: #316474 } 
		.s5 { fill: #316474 } 
		.s6 { fill: #ffffff;stroke: #316474 } 
		.s7 { fill: #eefaf6 } 
		.s8 { fill: none;stroke: #316474 } 
		.s9 { fill: #42cba5;stroke: #316474 } 
		.s10 { fill: #eefaf6;stroke: #316474 } 
	</style>
	<path id="Layer" fill-rule="evenodd" class="s0" d="m54.6 157.7c-40.6-12.4-51.6-36.8-48.9-64.7 3.8-38.6 33.9-52.8 63.5-52.8 39.8 0 46.8-4.5 102.3-31.7 40.9-20.1 106.5-3.2 111.9 64.9 3.5 44.8-21.2 75.8-53.8 86.8-31.6 10.6-101 20.2-175-2.5z"/>
	<path id="Layer" fill-rule="evenodd" class="s1" d="m118.4 68.9c-4.2 0-7.6-3.5-7.6-7.8 0-4.3 3.4-7.8 7.6-7.8q0.3 0 0.6 0 0.3 0 0.6 0.1 0.3 0 0.6 0.1 0.3 0.1 0.6 0.2c1.4-4.8 5.7-8.3 10.8-8.3 6.3 0 11.3 5.3 11.3 11.8 0 6.5-5 11.7-11.3 11.7zm-12.7 59.8c3.5 0 6.4-2.8 6.4-6.3 0-3.4-2.9-6.2-6.4-6.2-1.1 0-2.2 0.3-3.2 0.8 0-6.5-5.3-11.8-11.9-11.8-5.3 0-9.7 3.4-11.3 8.1q-0.2 0-0.5-0.1-0.3 0-0.6-0.1-0.2 0-0.5 0-0.3-0.1-0.5-0.1c-4.4 0-8 3.6-8 7.9 0 4.3 3.6 7.8 8 7.8z"/>
	<path id="Layer" class="s2" d="m10.2 49.7c0.4-4.1 4.1-7.1 8.2-6.7l35.4 3.7c4.1 0.4 7.1 4.1 6.7 8.3l-8.9 84.6c-0.5 4.1-4.2 7.1-8.3 6.6l-35.4-3.7c-4.1-0.4-7.1-4.1-6.6-8.2z"/>
	<path id="Layer" class="s3" d="m10.5 46c0.5-4.1 4.2-7.1 8.3-6.7l35.2 3.7c4.1 0.5 7.1 4.2 6.7 8.3l-8.9 84.2c-0.4 4.2-4.1 7.1-8.2 6.7l-35.3-3.7c-4.1-0.4-7.1-4.1-6.6-8.2z"/>
	<path id="Layer" class="s4" d="m57.2 51.7l-8.6 82.1q-0.1 1-0.6 2-0.6 1-1.4 1.7-0.9 0.6-1.9 1-1.1 0.3-2.1 0.2l-33-3.5q-1.1-0.1-2.1-0.6-0.9-0.6-1.6-1.4-0.7-0.9-1-1.9-0.3-1.1-0.2-2.2l8.6-82q0.1-1.1 0.6-2 0.5-1 1.4-1.7 0.8-0.7 1.9-1 1-0.3 2.1-0.2l5.3 0.6 22.4 2.3 5.3 0.6q1.1 0.1 2 0.6 1 0.6 1.7 1.4 0.7 0.8 1 1.9 0.3 1 0.2 2.1z"/>
	<path id="Layer" class="s5" d="m26.9 96.4l2.6 0.3q-0.3 3.2-0.7 6.5-1.3-0.1-2.6-0.3 0.3-3.2 0.7-6.5zm-4.3-4.2l2.2-1.8-1.8-2.3 1.1-0.9 1.9 2.2 2.2-1.8 0.9 1.1-2.2 1.9 1.8 2.2-1.1 1-1.9-2.3-2.2 1.8c0 0-0.9-1.1-0.9-1.1zm2.7 6.7q-0.2 1.9-0.4 3.9c-0.9-0.1-1.8-0.2-2.7-0.3q0.3-1.9 0.5-3.9c0.8 0.1 1.7 0.2 2.6 0.3zm16.8-8.8q-0.7 7.2-1.5 14.3c-0.9 0-1.7-0.1-2.6-0.2q0.7-7.2 1.5-14.4c0.9 0.1 1.8 0.1 2.6 0.3zm-6.8 1.9c0.9 0.1 1.8 0.1 2.6 0.3-0.4 3.9-0.8 7.8-1.2 11.7q-1.3-0.1-2.6-0.2 0.5-5.7 1.1-11.4 0.1-0.2 0.1-0.4zm-1.6 2.5c-0.2 2-0.4 4-0.6 6.1q-0.2 1.5-0.4 3l-2.6-0.3q0.5-4.3 0.9-8.6 0-0.3 0.1-0.5 1.3 0.1 2.6 0.3z"/>
	<path id="Layer" fill-rule="evenodd" class="s6" d="m18.1 47.9q0.1-0.3 0.4-0.5 0.3-0.2 0.6-0.3 0.3-0.1 0.6-0.1 0.3 0.1 0.6 0.2 0.3 0.2 0.5 0.4 0.2 0.3 0.3 0.6 0.1 0.3 0.1 0.6-0.1 0.4-0.2 0.6-0.2 0.3-0.4 0.5-0.3 0.2-0.6 0.3-0.3 0.1-0.6 0.1-0.4 0-0.7-0.2-0.2-0.2-0.4-0.4-0.3-0.3-0.3-0.6-0.1-0.3-0.1-0.6 0-0.3 0.2-0.6zm213.9 88.8q0.1-0.1 0.2-0.1 0 0 0.1 0 0.1-0.1 0.2-0.1 0 0 0 0 0 0 0 0 0 0 0 0 0.1 0 0.1-0.1l-0.7-10q-0.1 0-0.1 0-0.3-0.1-0.7-0.1l-33.9 2.3q-0.4 0.1-0.7 0.2 0 0 0 0 0 0 0 0 0 0.1 0 0.1 0 0 0 0l0.7 10q0 0 0 0 0 0 0 0 0 0 0 0.1 0 0 0 0 0.3 0.1 0.7 0l33.9-2.3q0.1 0 0.2 0z"/>
	<path id="Layer" class="s7" d="m283.7 125.7l-138.8 9.7c-2.9 0.2-5.4-2-5.6-4.9l-6.2-88.9c-0.2-2.8 1.9-5.3 4.8-5.5l138.9-9.7c2.8-0.2 5.3 2 5.5 4.8l6.3 88.9c0.2 2.9-2 5.4-4.9 5.6z"/>
	<path id="Layer" class="s8" d="m144.9 135.4c-2.9 0.2-5.4-2-5.6-4.9l-6.2-88.9c-0.2-2.8 1.9-5.3 4.8-5.5l138.9-9.7c2.8-0.2 5.3 2 5.5 4.8l6.3 88.9c0.2 2.9-2 5.4-4.9 5.6"/>
	<path id="Layer" class="s4" d="m278.6 121.4l-129.9 9.1c-2.4 0.1-4.5-1.6-4.7-4l-5.7-80.8c-0.1-2.3 1.7-4.4 4.1-4.5l129.9-9.1c2.4-0.2 4.5 1.6 4.7 3.9l5.6 80.9c0.2 2.3-1.6 4.3-4 4.5z"/>
	<path id="Layer" class="s9" d="m230.2 130l68.5-4.8 0.4 6c0.1 0.8-0.1 1.5-0.4 2-0.2 0.5-0.6 0.7-0.9 0.7l-165 11.5c-0.3 0-0.7-0.1-1-0.6-0.4-0.4-0.6-1.1-0.7-1.9l-0.4-6 68.5-4.8c0.3 0.8 0.7 1.5 1.2 2 0.5 0.6 1.3 1 2.1 1l24.9-1.8c0.8 0 1.5-0.5 1.9-1.2 0.5-0.6 0.8-1.3 0.9-2.1z"/>
	<path id="Layer" class="s10" d="m230.4 129.1l69.9-4.9 0.2 3.7q0.1 0.3 0 0.5-0.1 0.3-0.3 0.5-0.2 0.3-0.5 0.4-0.3 0.1-0.6 0.2l-168.2 11.7q-0.3 0-0.6-0.1-0.3-0.1-0.5-0.3-0.3-0.2-0.4-0.4-0.1-0.3-0.2-0.6l-0.2-3.7 69.9-4.9q0.2 0.5 0.6 0.8 0.3 0.4 0.7 0.6 0.4 0.3 0.9 0.4 0.5 0.1 1 0.1l25.4-1.8q0.4-0.1 0.9-0.2 0.5-0.2 0.8-0.5 0.4-0.3 0.7-0.7 0.3-0.4 0.5-0.8z"/>
	<path id="Layer" class="s9" d="m211.8 99.5c-8.9 0.6-16.5-6-17.1-14.8-0.6-8.9 6-16.5 14.8-17.1 8.9-0.6 16.5 6 17.1 14.8 0.6 8.9-6 16.5-14.8 17.1z"/>
	<path id="Layer" class="s6" d="m215 76.7q0.3-0.3 0.6-0.5 0.3-0.3 0.7-0.3 0.3-0.1 0.7 0 0.4 0 0.7 0.2 0.3 0.2 0.6 0.5 0.2 0.4 0.3 0.7 0 0.4 0 0.8-0.1 0.4-0.3 0.7l-8.1 12.2q-0.2 0.3-0.5 0.5-0.4 0.3-0.8 0.3-0.4 0.1-0.8 0-0.4-0.1-0.7-0.4l-5.1-4.1q-0.3-0.2-0.5-0.6-0.1-0.3-0.2-0.7 0-0.4 0.1-0.7 0.1-0.4 0.4-0.7 0.2-0.3 0.5-0.5 0.4-0.1 0.8-0.2 0.3 0 0.7 0.1 0.4 0.1 0.7 0.4l3.4 2.7c0 0 6.8-10.4 6.8-10.4z"/>
</svg>