<svg version="1.2" xmlns="http://www.w3.org/2000/svg" viewBox="0 0 98 78" width="98" height="78">
	<title>image</title>
	<path id="Layer" fill-rule="evenodd" class="s0" d="m11.2 19.2c-0.1-2.8 2-5.3 4.8-5.4 2.8-0.1 5.2 2 5.4 4.8 0.1 2.8-2 5.2-4.8 5.4h-0.3c-2.7 0-5-2.1-5.1-4.8zm1.9-0.3c0 1.7 1.4 3.1 3.1 3.1 1.7 0 3.1-1.4 3.1-3.1 0-1.7-1.4-3.1-3.1-3.1h-0.2c-0.8 0-1.6 0.4-2.1 1-0.5 0.6-0.8 1.3-0.8 2.1z"/>
	<path id="Layer" fill-rule="evenodd" class="s0" d="m94.4 29.5l-2 34c-0.3 5.5-4.9 9.8-10.4 9.8h-0.6l-34-2c-5.8-0.3-10.1-5.3-9.8-11v-0.6l-21.7 1.2h-0.6c-5.2 0-9.6-3.9-10.3-9.1v-0.8l-1.9-34c-0.3-5.7 4.1-10.7 9.8-11l33.9-1.9c5.8-0.3 10.7 4.1 11 9.8l0.2 3 26.7 1.5c5.7 0.4 10.1 5.3 9.7 11.1zm-89.2-12.5l1.8 32 8.1-9.1c1.3-1.4 3.4-1.6 4.8-0.3l7.8 7c0.3 0.3 0.6 0.4 1 0.4 0.4-0.1 0.8-0.2 1-0.5l9.5-10.7 0.6-9.5c0.3-5.8 5.3-10.1 11-9.8l5.3 0.3-0.2-2.8c-0.3-4.6-4.3-8.2-8.9-7.9l-34 1.9c-2.2 0.1-4.3 1.1-5.8 2.8-1.4 1.7-2.2 3.9-2 6.2zm32.6 40.7l1.1-18.6-7.8 8.8c-0.6 0.6-1.4 1.1-2.3 1.1-0.9 0-1.8-0.3-2.5-0.9l-7.8-7c-0.3-0.3-0.6-0.4-1-0.4-0.4 0.1-0.8 0.2-1 0.5l-9.4 10.5c0.7 4.3 4.5 7.3 8.8 7.1zm46.7-37.3l-34-2h-0.5c-4.5 0-8.1 3.5-8.4 7.9l-2 34c-0.3 4.6 3.3 8.6 7.9 8.9l34 2c4.6 0.3 8.6-3.3 8.9-7.9l2-34c0.3-4.6-3.2-8.6-7.9-8.9z"/>
	<path id="Layer" fill-rule="evenodd" class="s0" d="m79.7 43.4c1.1 2.2 0.2 4.9-2 6l-18 9c-0.6 0.3-1.3 0.5-2 0.5h-0.3c-2.5-0.2-4.3-2.3-4.2-4.8l1.2-20.1c0-0.8 0.3-1.5 0.7-2.2 1.3-2.1 4.1-2.7 6.2-1.3l16.9 11.1q0.9 0.8 1.5 1.8zm-2 3.3c0.8-1.1 0.5-2.6-0.7-3.4l-16.7-11.1c-0.8-0.4-1.7-0.5-2.5-0.1-0.8 0.4-1.3 1.2-1.4 2.1l-1.2 20.1c-0.1 0.9 0.4 1.7 1.1 2.2 0.3 0.2 0.8 0.4 1.2 0.4 0.5 0 0.9-0.1 1.3-0.3l18-9q0.6-0.3 0.9-0.9z"/>
</svg>
