<svg width="65" height="65" viewBox="0 0 65 65" fill="none" xmlns="http://www.w3.org/2000/svg">
<circle cx="32.5" cy="32.5" r="32.5" fill="#414141"/>
<path d="M35.5938 17.0063C35.875 17 36.05 17.0375 36.3125 17.1625C36.55 17.275 36.8688 17.5375 37.3563 18.025C37.8938 18.5563 38.0938 18.8063 38.225 19.0938C38.3688 19.4188 38.3875 19.525 38.3625 19.9063C38.3437 20.1438 38.2813 20.4438 38.225 20.5625C38.1625 20.6813 35.3687 23.5313 25.9062 33L32.0063 39.1063C36.1438 43.25 38.1438 45.3 38.225 45.4688C38.3125 45.65 38.3438 45.8563 38.3438 46.2188C38.3438 46.6188 38.3125 46.775 38.1938 47C38.1125 47.1563 37.7313 47.5938 37.35 47.9813C36.825 48.5063 36.5688 48.7188 36.2938 48.8375C36.0438 48.95 35.8313 49 35.575 49C35.3188 49 35.1188 48.9563 34.875 48.8375C34.5813 48.7 33.5 47.6438 27.2375 41.3875C20.9062 35.0563 19.925 34.05 19.7875 33.75C19.6687 33.4938 19.625 33.3 19.625 33C19.625 32.7 19.6625 32.5125 19.775 32.2813C19.8938 32.0313 21.3438 30.55 27.2875 24.6125C33.1125 18.7938 34.7125 17.2313 34.9375 17.1313C35.1063 17.0563 35.3688 17.0063 35.5938 17.0063V17.0063Z" fill="white"/>
</svg>
