<svg version="1.2" fill="#cecdcd" xmlns="http://www.w3.org/2000/svg" viewBox="0 0 512 512" width="20" height="18">
	<title>More</title>
	<path d="m255.5 0c6.6 0 10.7 0.5 15.5 2.1 3.6 1.1 9.2 3.5 12.5 5.2 3.3 1.7 8.9 6.1 12.5 9.7 3.6 3.6 8 9.2 9.7 12.5 1.7 3.3 4.1 9.4 5.2 13.5 1.2 4.1 2.1 10.2 2.1 13.5 0 3.3-0.9 9.6-2 14-1.2 4.4-3.5 10.7-5.3 14-1.8 3.3-6.1 8.9-9.7 12.5-4.3 4.3-9.2 7.8-14 10.3-4.1 2-10.6 4.4-14.5 5.2-3.9 0.8-9 1.5-11.5 1.5-2.5 0-7.7-0.7-11.5-1.5-3.8-0.8-10.4-3.2-14.5-5.2-4.8-2.5-9.7-6-14-10.3-3.6-3.6-7.9-9.2-9.7-12.5-1.7-3.3-4.1-9.4-5.2-13.5-1.2-4.1-2.1-10.2-2.1-13.5 0-3.3 0.9-9.6 2-14 1.2-4.4 3.5-10.7 5.3-14 1.7-3.3 6.1-8.9 9.7-12.5 3.6-3.6 9-7.8 12-9.5 3-1.6 8.4-3.9 12-5.1 4.8-1.7 8.9-2.3 15.5-2.4zm0 199.1c2.8 0 8.1 0.6 12 1.4 3.9 0.8 10.4 3.1 14.5 5.2 5.2 2.5 9.5 5.7 14 10.2 3.6 3.6 7.9 9.3 9.7 12.6 1.7 3.3 4.1 9.4 5.2 13.5 1.2 4.1 2.1 10.2 2.1 13.5 0 3.3-0.9 9.6-2 14-1.2 4.4-3.5 10.7-5.3 14-1.8 3.3-6.1 9-9.7 12.6-4.5 4.5-8.8 7.7-14 10.2-4.1 2.1-10.6 4.4-14.5 5.2-3.9 0.8-9 1.5-11.5 1.5-2.5 0-7.7-0.7-11.5-1.5-3.8-0.8-10.4-3.1-14.5-5.2-5.2-2.5-9.5-5.7-14-10.2-3.6-3.6-7.9-9.3-9.7-12.6-1.7-3.3-4.1-9.4-5.2-13.5-1.2-4.1-2.1-10.2-2.1-13.5 0-3.3 0.9-9.6 2-14 1.2-4.4 3.5-10.7 5.3-14 1.8-3.3 6.1-9 9.7-12.6 4.5-4.5 8.8-7.7 14-10.2 4.1-2.1 10.4-4.4 14-5.1 3.6-0.8 8.8-1.5 11.5-1.5zm0 199c2.8 0 8.1 0.6 12 1.4 3.9 0.8 10.4 3.2 14.5 5.2 4.8 2.5 9.7 6 14 10.3 3.6 3.6 7.9 9.2 9.7 12.5 1.7 3.3 4.1 9.4 5.2 13.5 1.2 4.1 2.1 10.2 2.1 13.5 0 3.3-0.9 9.6-2 14-1.2 4.4-3.5 10.7-5.3 14-1.7 3.3-6.1 8.9-9.7 12.5-3.6 3.6-9.2 8-12.5 9.7-3.3 1.7-8.9 4.1-12.5 5.2-4.5 1.5-9.1 2.1-15 2.1-5.9 0-10.5-0.6-15-2.1-3.6-1.1-9.2-3.5-12.5-5.2-3.3-1.7-8.9-6.1-12.5-9.7-3.6-3.6-8-9.2-9.7-12.5-1.7-3.3-4.1-9.4-5.2-13.5-1.2-4.1-2.1-10.2-2.1-13.5 0-3.3 0.9-9.6 2-14 1.2-4.4 3.5-10.7 5.3-14 1.8-3.3 6.1-8.9 9.7-12.5 4.3-4.2 9.2-7.8 14-10.3 4.1-2.1 10.4-4.4 14-5.1 3.6-0.8 8.8-1.5 11.5-1.5z"/>
</svg>