<svg version="1.2" xmlns="http://www.w3.org/2000/svg" viewBox="0 0 124 91" width="30" height="22">
	<title>muted-svg</title>
	<style>
		.s0 { fill: #FFFFFF } 
	</style>
	<g id="layer1">
		<path id="path179" fill-rule="evenodd" class="s0" d="m49.6 90.1c-2-0.3-3.6-0.8-5.1-1.5-0.7-0.4-6.1-3.7-11.9-7.5l-10.6-6.7-6-2c-3.8-1.2-6.5-2.3-7.6-2.9-2.4-1.4-5.3-4.5-6.5-7-1.9-3.8-1.9-3.9-1.9-17.4 0-13.5 0-13.7 1.9-17.5 1.2-2.4 4.7-6 7-7.2 0.7-0.5 4-1.7 7.3-2.7l5.8-1.9 10.6-6.8c5.8-3.7 11.1-7 11.9-7.4 3.1-1.6 7.9-2.1 11.4-1.1 5.6 1.5 9.9 5.7 11.3 10.9 0.3 1.3 0.4 5.7 0.4 33.6 0 35.7 0.1 33.6-1.8 37.2-2.8 5.3-9.8 8.8-16.2 7.9zm4.5-11.7c0.6-0.4 1.4-1 1.7-1.4 0.6-0.7 0.6-0.9 0.6-31.9v-31.2l-0.6-0.7c-1.3-1.8-4.1-2.5-6.2-1.5-0.7 0.3-6 3.6-11.9 7.4l-10.7 6.9-6.5 2.1c-6.5 2.1-6.6 2.2-7.6 3.3-0.6 0.7-1.2 1.7-1.3 2.3-0.5 1.4-0.5 21.4 0 22.8 0.1 0.6 0.7 1.6 1.3 2.2 1 1.2 1.1 1.2 7.6 3.3l6.5 2.1 11 7.1c6 3.9 11.4 7.2 11.9 7.4 1.4 0.5 2.9 0.4 4.2-0.2zm29.1-10.9c-3.3-0.9-5.1-4.4-3.8-7.5 0.3-0.7 2.7-3.4 7.3-8l6.9-6.9-7-7.1c-6.5-6.6-7-7.2-7.3-8.4-0.7-2.6 0.5-5.2 2.9-6.4 1.6-0.7 2.7-0.8 4.3-0.3 0.9 0.3 2.3 1.5 8.1 7.3l7 6.9 6.8-6.7c4.3-4.4 7.1-7 7.8-7.3 4.5-2.1 9.3 2.7 7.3 7.4-0.2 0.6-2.7 3.3-7.2 7.8l-6.7 6.8 6.7 6.8c4.5 4.4 7 7.1 7.2 7.8 1.9 4.6-2.7 9.3-7.2 7.5-0.6-0.3-3.3-2.8-7.8-7.3l-6.9-6.9-6.7 6.8c-3.8 3.7-7.2 7-7.7 7.2-1.3 0.7-2.6 0.8-4 0.5z"/>
	</g>
</svg>