<svg width="65" height="65" viewBox="0 0 65 65" fill="none" xmlns="http://www.w3.org/2000/svg">
<circle cx="32.5" cy="32.5" r="32.5" fill="#414141"/>
<path d="M28.4063 17.0063C28.125 17 27.95 17.0375 27.6875 17.1625C27.45 17.275 27.1313 17.5375 26.6438 18.025C26.1063 18.5563 25.9063 18.8063 25.775 19.0938C25.6313 19.4188 25.6125 19.525 25.6375 19.9063C25.6563 20.1438 25.7188 20.4438 25.775 20.5625C25.8375 20.6813 28.6313 23.5313 38.0938 33L31.9938 39.1063C27.8563 43.25 25.8563 45.3 25.775 45.4688C25.6875 45.65 25.6563 45.8563 25.6563 46.2188C25.6563 46.6188 25.6875 46.775 25.8063 47C25.8875 47.1563 26.2688 47.5938 26.65 47.9813C27.175 48.5063 27.4313 48.7188 27.7063 48.8375C27.9563 48.95 28.1688 49 28.425 49C28.6813 49 28.8813 48.9563 29.125 48.8375C29.4188 48.7 30.5 47.6438 36.7625 41.3875C43.0938 35.0563 44.075 34.05 44.2125 33.75C44.3313 33.4938 44.375 33.3 44.375 33C44.375 32.7 44.3375 32.5125 44.225 32.2813C44.1062 32.0313 42.6562 30.55 36.7125 24.6125C30.8875 18.7938 29.2875 17.2313 29.0625 17.1313C28.8938 17.0563 28.6313 17.0063 28.4063 17.0063V17.0063Z" fill="white"/>
</svg>
