<svg version="1.2" fill="#cecdcd" xmlns="http://www.w3.org/2000/svg" viewBox="0 0 24 24" width="24" height="24">
	<title>Status</title>
	<path d="m12 20.7q-0.9 0-1.8-0.2-0.9-0.2-1.7-0.5-0.9-0.4-1.6-0.9-0.8-0.5-1.4-1.1-0.3-0.3-0.3-0.7 0-0.4 0.3-0.7 0.3-0.3 0.7-0.3 0.4 0 0.7 0.3 1 1 2.2 1.5 1.3 0.6 2.7 0.6 1.4 0 2.7-0.4 1.3-0.5 2.4-1.5 0.3-0.2 0.7-0.2 0.4 0 0.6 0.3 0.3 0.3 0.3 0.7 0 0.4-0.3 0.7-0.6 0.5-1.4 1-0.7 0.4-1.5 0.7-0.8 0.4-1.6 0.5-0.8 0.2-1.7 0.2zm8-6.1q-0.3 0-0.5-0.1-0.2-0.1-0.3-0.3-0.1-0.2-0.2-0.4 0-0.3 0-0.5 0.4-1.3 0.2-2.7-0.1-1.4-0.8-2.6-0.7-1.3-1.8-2.2-1-0.9-2.4-1.3-0.3-0.1-0.5-0.5-0.2-0.3-0.1-0.7 0.1-0.4 0.5-0.6 0.3-0.1 0.7 0c1.1 0.3 2.2 0.9 3.1 1.6 0.9 0.8 1.6 1.7 2.2 2.7 0.6 1.1 0.9 2.2 1.1 3.3 0.1 1.2 0 2.4-0.3 3.5q0 0.2-0.1 0.3-0.1 0.2-0.2 0.2-0.2 0.1-0.3 0.2-0.2 0.1-0.3 0.1zm-16.1-0.4q-0.1 0-0.3-0.1-0.1 0-0.3-0.2-0.1-0.1-0.2-0.2-0.1-0.1-0.1-0.3c-0.3-1.2-0.3-2.3-0.1-3.5 0.2-1.2 0.6-2.3 1.2-3.3 0.6-1 1.4-1.8 2.4-2.5 0.9-0.7 2-1.3 3.1-1.6q0.4-0.1 0.8 0.1 0.3 0.2 0.4 0.6 0.1 0.4-0.1 0.8-0.2 0.3-0.6 0.4-1.3 0.4-2.5 1.2-1.1 0.9-1.8 2.1-0.7 1.1-1 2.5-0.2 1.4 0.1 2.8 0 0.2 0 0.4-0.1 0.2-0.2 0.4-0.1 0.2-0.3 0.3-0.2 0.1-0.5 0.1z"/>
</svg>