<svg version="1.2" xmlns="http://www.w3.org/2000/svg" viewBox="0 0 124 91" width="30" height="22">
	<title>unmute-svg</title>
	<style>
		.s0 { fill: #FFFFFF } 
	</style>
	<g id="layer1">
		<path id="path179" fill-rule="evenodd" class="s0" d="m49.5 90c-1.9-0.2-3.8-0.8-5.4-1.7-0.7-0.3-5.9-3.6-11.6-7.2l-10.3-6.7-5.8-1.8c-3.2-1.1-6.5-2.3-7.4-2.8-2.4-1.2-5.9-4.8-7.1-7.3-1.9-3.9-1.9-4-1.9-17.4 0-13.5 0-13.6 1.9-17.5 1.2-2.5 4.7-6.1 7.1-7.3 0.9-0.5 4.2-1.7 7.4-2.7l5.8-1.9 10.3-6.6c5.7-3.7 11.2-7.1 12.2-7.6 2.5-1.1 4.3-1.5 7-1.5 2.9 0 4.6 0.4 7.6 1.8 3.6 1.7 6 4.4 7.5 8.2l0.7 1.6v32.7c0.1 23 0 33.1-0.2 34-0.5 2.4-2.1 5.4-3.9 7.2-3.5 3.4-9 5.2-13.9 4.5zm4.6-11.7c0.6-0.3 1.4-0.9 1.7-1.3 0.6-0.7 0.6-0.9 0.6-31.9v-31.2l-0.6-0.8c-1.2-1.6-4.1-2.4-5.9-1.6-0.5 0.2-5.9 3.6-11.9 7.5l-11 7-6.5 2.1c-7.1 2.3-7.6 2.6-8.7 5.1-0.5 1.1-0.5 1.7-0.5 11.9 0 14.7-0.6 13.7 9.2 16.9l6.5 2.1 11 7.1c6 3.9 11.4 7.2 11.9 7.4 1.4 0.5 2.9 0.4 4.2-0.3zm45.9 11.6c-2.3-0.6-4.1-3.1-4.1-5.5q0-2 2.8-5c16.8-18.1 18.1-45.3 3.3-64.8-0.9-1.2-2.4-2.9-3.3-3.9-2.1-2.2-2.6-3.2-2.6-5.1 0-3.2 2.3-5.5 5.6-5.5 1.9 0 3 0.6 5.2 2.9 8.9 9.3 14.8 22.1 16.3 35.3 0.3 3.5 0.3 10.7-0.2 14.2-1.6 13.2-7.3 25.3-16.2 34.7-2.7 2.8-4.2 3.4-6.8 2.7zm-20.6-11.3c-2.1-0.8-3.6-3-3.6-5.2 0-1.8 0.5-3 2.1-4.6 4.3-4.6 7.5-10.6 8.8-16.9 0.8-3.9 0.8-9.8 0-13.6-1.4-6.4-4.1-11.7-8.8-17-1.8-2-2.2-3-2-5 0.2-1.8 1.1-3.3 2.6-4.1 3.3-1.9 5.6-1 9.6 3.7 4.7 5.7 8 12.7 9.7 20.4 0.5 2.5 0.6 3.6 0.6 8.8 0 5.2-0.1 6.3-0.6 8.7-1.9 8.5-5.6 16-11.2 22-1 1.2-2.2 2.3-2.6 2.5-1.2 0.6-3.4 0.7-4.6 0.3z"/>
	</g>
</svg>